{
  "accessors": [
    {
      "bufferView": 0,
      "componentType": 5126,
      "count": 23133,
      "max": [
        1.3227165937423706,
        0.525000274181366,
        0.5316466689109802
      ],
      "min": [
        -1.3558499813079834,
        -1.3890299797058105,
        -0.38847699761390686
      ],
      "type": "VEC3"
    },
    {
      "bufferView": 1,
      "componentType": 5125,
      "count": 40673,
      "type": "SCALAR"
    },
    {
      "bufferView": 2,
      "componentType": 5126,
      "count": 23133,
      "type": "VEC3"
    },
    {
      "bufferView": 3,
      "componentType": 5126,
      "count": 23133,
      "type": "VEC4"
    },
    {
      "bufferView": 4,
      "componentType": 5126,
      "count": 23133,
      "type": "VEC2"
    },
    {
      "bufferView": 5,
      "componentType": 5126,
      "count": 27760,
      "max": [
        0.22569313645362854,
        0.07432691752910614,
        0.39942479133605957
      ],
      "min": [
        -0.2242169976234436,
        -0.08607599884271622,
        0.3486340045928955
      ],
      "type": "VEC3"
    },
    {
      "bufferView": 6,
      "componentType": 5125,
      "count": 31028,
      "type": "SCALAR"
    },
    {
      "bufferView": 7,
      "componentType": 5126,
      "count": 27760,
      "type": "VEC3"
    },
    {
      "bufferView": 8,
      "componentType": 5126,
      "count": 27760,
      "type": "VEC4"
    },
    {
      "bufferView": 9,
      "componentType": 5126,
      "count": 27760,
      "type": "VEC2"
    }
  ],
  "asset": {
    "version": "2.0"
  },
  "bufferViews": [
    {
      "buffer": 0,
      "byteLength": 277596,
      "target": 34962
    },
    {
      "buffer": 1,
      "byteLength": 162692,
      "target": 34963
    },
    {
      "buffer": 2,
      "byteLength": 277596,
      "target": 34962
    },
    {
      "buffer": 3,
      "byteLength": 370128,
      "target": 34962
    },
    {
      "buffer": 4,
      "byteLength": 185064,
      "target": 34962
    },
    {
      "buffer": 5,
      "byteLength": 333120,
      "target": 34962
    },
    {
      "buffer": 6,
      "byteLength": 124112,
      "target": 34963
    },
    {
      "buffer": 7,
      "byteLength": 333120,
      "target": 34962
    },
    {
      "buffer": 8,
      "byteLength": 444160,
      "target": 34962
    },
    {
      "buffer": 9,
      "byteLength": 222080,
      "target": 34962
    }
  ],
  "buffers": [
    {
      "byteLength": 277596,
      "uri": "data:application/octet-stream;base64,"
    },
    {
      "byteLength": 162692,
      "uri": "data:application/octet-stream;base64,"
    },
    {
      "byteLength": 277596,
      "uri": "data:application/octet-stream;base64,"
    },
    {
      "byteLength": 370128,
      "uri": "data:application/octet-stream;base64,"
    },
    {
      "byteLength": 185064,
      "uri": "data:application/octet-stream;base64,"
    },
    {
      "byteLength": 333120,
      "uri": "data:application/octet-stream;base64,"
    },
    {
      "byteLength": 124112,
      "uri": "data:application/octet-stream;base64,"
    },
    {
      "byteLength": 333120,
      "uri": "data:application/octet-stream;base64,"
    },
    {
      "byteLength": 444160,
      "uri": "data:application/octet-stream;base64,"
    },
    {
      "byteLength": 222080,
      "uri": "data:application/octet-stream;base64,"
    }
  ],
  "materials": [
    {
      "doubleSided": true,
      "name": "mesa blackyack",
      "pbrMetallicRoughness": {
        "baseColorFactor": [
          0.800000011920929,
          0.800000011920929,
          0.800000011920929,
          1.0
        ]
      }
    }
  ],
  "meshes": [
    {
      "name": "mesa blackyack_mesa blackyack_0",
      "primitives": [
        {
          "attributes": {
            "NORMAL": 2,
            "POSITION": 0,
            "TANGENT": 3,
            "TEXCOORD_0": 4
          },
          "indices": 1,
          "material": 0,
          "mode": 5
        }
      ]
    },
    {
      "name": "mesa blackyack_fichas_0",
      "primitives": [
        {
          "attributes": {
            "NORMAL": 7,
            "POSITION": 5,
            "TANGENT": 8,
            "TEXCOORD_0": 9
          },
          "indices": 6,
          "material": 0,
          "mode": 5
        }
      ]
    }
  ],
  "nodes": [
    {
      "mesh": 0,
      "name": "mesa blackyack_mesa blackyack_0"
    },
    {
      "mesh": 1,
      "name": "mesa blackyack_fichas_0"
    },
    {
      "children": [
        0,
        1
      ],
      "name": "mesa blackyack",
      "rotation": [
        -0.7071068387878171,
        0.0,
        0.0,
        0.7071067235852733
      ],
      "scale": [
        100.0,
        100.0,
        100.0
      ],
      "translation": [
        0.0,
        39.02939987182617,
        0.0
      ]
    },
    {
      "children": [
        2
      ],
      "name": "RootNode"
    },
    {
      "children": [
        3
      ],
      "name": "c88d55ed51ab45f5a506de7620b1a5b8.fbx",
      "rotation": [
        1.1102230246251565e-16,
        0.0,
        0.0,
        1.0
      ],
      "scale": [
        0.009999999776482582,
        0.009999999776482582,
        0.009999999776482582
      ],
      "translation": [
        0.0,
        0.0,
        0.0
      ]
    }
  ],
  "scene": 0,
  "scenes": [
    {
      "nodes": [
        4
      ]
    }
  ]
}
